<?xml version="1.0" encoding="UTF-8"?>
<svg id="Layer_1" xmlns="http://www.w3.org/2000/svg" xmlns:xlink="http://www.w3.org/1999/xlink" version="1.1" viewBox="0 0 312 312">
  <!-- Generator: Adobe Illustrator 30.2.1, SVG Export Plug-In . SVG Version: 2.1.1 Build 1)  -->
  <defs>
    <style>
      .st0 {
        fill: url(#linear-gradient1);
      }

      .st1 {
        fill: url(#linear-gradient);
      }
    </style>
    <linearGradient id="linear-gradient" x1="194.08" y1="303.51" x2="194.08" y2="165.26" gradientUnits="userSpaceOnUse">
      <stop offset="0" stop-color="#3b9edd"/>
      <stop offset=".48" stop-color="#112cff"/>
      <stop offset="1" stop-color="#000012"/>
    </linearGradient>
    <linearGradient id="linear-gradient1" x1="134.23" y1="115.41" x2="134.23" y2="0" gradientUnits="userSpaceOnUse">
      <stop offset="0" stop-color="#3b9edd"/>
      <stop offset=".48" stop-color="#112cff"/>
      <stop offset=".6" stop-color="#000012"/>
    </linearGradient>
  </defs>
  <g id="N_GS">
    <path class="st1" d="M312,77.99v234.01H76.16V77.66c67.97,71.05,135.04,141.77,208.18,207.23-30.7-69.1-61.23-137.83-91.92-206.9h119.58Z"/>
  </g>
  <path class="st0" d="M134.23,0l.45,7.55c1.59,26.77,22.96,48.13,49.73,49.7l7.89.46-7.89.46c-26.78,1.57-48.14,22.92-49.73,49.7l-.45,7.55-.45-7.55c-1.59-26.77-22.96-48.13-49.73-49.7l-7.89-.46,7.89-.46c26.78-1.57,48.14-22.92,49.73-49.7l.45-7.55Z"/>
</svg>